<svg viewBox="0 0 1697.2 1673.97"><defs><style>.cls-1{fill:none;}.cls-1,.cls-2{stroke:#000;stroke-miterlimit:10;}.cls-2{fill:#b2811f;}</style></defs><g id="Layer_2" data-name="Layer 2"><g id="MyPolygons"><polyline id="TransectC" class="cls-1" points="583.1 439.56 532.53 854.86 500.48 1293.75"/><polyline id="TransectB" class="cls-1" points="973.69 578.78 956.54 992.37 916.88 1417.65"/><polyline id="TransectA" class="cls-1" points="1122.93 503.62 1203.36 914.65 1289.26 1350.62"/><polygon id="Plant1" class="cls-1" points="394.06 776.39 375.31 780.14 371.02 803.18 382.54 824.62 407.46 832.12 415.5 810.68 404.24 783.89 394.06 776.39"/><polygon id="Plant2" class="cls-1" points="384.95 232.79 432.37 248.06 455.68 265.74 475.78 288.25 479.8 312.36 479.8 326.83 459.7 334.86 454.07 340.49 462.11 371.84 484.62 383.09 495.87 399.97 483.81 427.3 466.13 457.03 483.81 464.27 482.21 477.93 458.9 498.83 440.41 506.87 435.59 527.76 444.43 551.07 461.31 551.07 508.73 543.84 560.17 533.39 565.8 539.82 583.1 566.34 576.25 583.22 541.79 596.89 511.14 608.14 500.48 623.41 500.48 637.07 484.02 661.99 447.64 671.63 415.5 683.69 379.33 677.26 365.66 659.58 352 661.19 343.16 698.96 314.22 727.9 261.98 738.35 241.08 749.6 184.82 749.6 142.22 782.55 62.65 793 0.76 804.25 89.98 553.48 247.51 497.22 350.39 518.52 344.76 463.46 384.95 387.91 360.04 304.32 384.95 232.79"/><polygon id="Plant3" class="cls-1" points="483.81 758.44 488.64 743.17 471.76 728.7 462.11 743.57 457.29 769.69 457.29 788.98 460.5 801.04 472.96 804.25 481.4 782.55 483.81 758.44"/><polygon id="Plant4" class="cls-1" points="488.64 699.77 507.12 686.91 528.82 686.91 541.79 709.41 541.79 754.42 539.16 800.42 528.02 828.37 520.79 846.85 494.26 854.89 464.52 840.42 450.86 821.94 457.29 804.25 472.96 804.25 482.02 776.39 483.81 758.44 488.64 743.17 471.76 728.7 488.64 699.77"/><polygon id="Plant4x2" class="cls-1" points="592.32 433.73 583.1 420.87 568.21 427.3 558.56 452.21 552.94 463.46 552.94 474.72 560.17 483.56 572.63 492.4 586.69 492.4 600.36 481.15 604.38 469.09 604.38 453.82 598.75 439.56 592.32 433.73"/><polygon id="Plant5" class="cls-1" points="513.55 635.47 524 642.7 534.45 635.47 529.63 619.58 520.79 613.76 507.21 613.76 500.48 623.41 504.71 632.25 513.55 635.47"/><polygon id="Plant6" class="cls-1" points="576.25 583.22 578.66 598.49 594.73 598.49 610 598.49 614.02 583.22 604.38 570.36 595.13 563.93 583.1 566.34 576.25 583.22"/><polygon id="Plant8" class="cls-1" points="567.4 506.87 549.72 513.3 541.79 531.78 560.17 533.39 565.8 539.82 583.1 532.59 578.66 512.49 567.4 506.87"/><polygon id="Plant9" class="cls-1" points="384.15 186.97 368.07 186.97 339.14 186.97 327.08 212.69 336.73 225.55 368.07 230.38 384.95 232.79 432.37 248.06 455.68 265.74 475.78 288.25 479.8 312.36 479.8 326.83 459.7 334.86 454.07 340.49 462.11 371.84 484.62 383.09 495.87 399.97 483.81 427.3 466.13 457.03 483.81 464.27 482.21 477.93 458.9 498.83 440.41 506.87 435.59 527.76 444.43 551.07 461.31 551.07 541.79 531.78 549.72 513.3 567.4 506.87 572.63 492.4 552.94 474.72 552.94 463.46 568.21 427.3 560.17 410.42 563.38 395.95 572.63 372.64 552.94 358.17 528.82 348.53 510.34 349.33 500.48 349.33 500.48 339.69 511.94 324.42 507.93 303.52 483.01 273.78 476.58 253.69 457.29 218.32 454.07 196.62 384.15 186.97"/><polygon id="Plant10" class="cls-1" points="712.08 485.17 690.38 476.32 679.13 492.4 679.13 506.87 670.28 523.34 678.32 529.37 691.18 529.37 699.22 523.34 703.24 512.49 712.08 503.62 712.08 485.17"/><polygon id="Plant11" class="cls-1" points="727.35 586.44 698.41 578.78 674.3 589.65 670.28 605.73 675.11 628.23 689.57 636.27 716.1 632.25 732.98 636.27 732.98 660.38 732.98 673.24 762.72 682.08 782 682.08 762.72 721.47 735.39 716.64 716.1 715.04 704.04 695.75 674.3 683.69 644.56 682.89 634.92 682.89 642.15 653.95 630.9 642.7 604.38 642.7 583.1 656.36 569.82 669.22 546.51 700.57 541.79 725.49 552.07 760.35 564.99 782.55 588.3 801.04 612.41 826.76 634.92 832.12 661.9 832.12 681.54 816.31 700.02 795.41 702.43 821.94 705.65 854.89 716.1 878.2 732.98 895.08 759.5 915.17 770.75 936.07 791.65 944.11 824.93 944.11 854.34 927.12 884.88 899.9 913.02 882.22 928.29 877.39 941.95 896.68 967.67 919.19 988.57 927.12 1036.79 927.12 1068.14 901.51 1095.33 885.83 1115.83 880.61 1122.93 854.89 1113.95 832.12 1098.68 804.25 1083.41 776.39 1049.65 753.62 1020.72 738.35 993.39 741.56 970.08 757.64 945.28 728.7 928.29 711.02 893.73 699.77 864.79 686.91 847.91 666.81 868.01 649.13 880.87 619.58 902.57 628.23 916.88 660.38 916.88 674.05 930.7 686.91 954.01 672.44 962.04 666.01 977.32 686.91 994.2 686.91 1009.47 671.63 1018.31 653.95 1035.99 651.54 1057.69 670.83 1068.94 707.8 1078.59 710.22 1099.49 723.08 1135.65 734.33 1175.04 723.88 1206.1 693.34 1209.6 667.62 1209.6 639.49 1201.56 619.58 1187.9 606.53 1164.59 594.48 1195.13 584.83 1215.23 574.38 1227.28 566.34 1235.32 588.85 1235.32 603.32 1242.55 613.76 1259.43 619.58 1275.51 610.55 1298.01 619.58 1320.52 610.55 1331.77 594.48 1343.83 588.85 1347.85 566.34 1343.02 552.68 1335.79 543.84 1365.53 538.21 1375.17 544.64 1397.68 524.55 1409.73 524.55 1414.56 506.87 1483.68 492.4 1509.4 476.32 1525.47 456.63 1560.84 433.73 1560.84 420.87 1568.07 389.52 1560.84 372.64 1543.96 363 1509.4 354.15 1494.93 358.98 1470.82 354.15 1461.17 334.86 1429.02 328.43 1410.54 333.26 1384.82 354.15 1383.21 379.87 1356.69 387.91 1314.89 402.38 1294.8 413.63 1282.74 434.53 1257.02 449.8 1231.3 467.48 1206.1 487.58 1186.29 503.62 1164.59 511.69 1144.5 510.08 1129.22 503.62 1100.29 498.02 1082.61 479.54 1063.32 461.05 1038.4 466.68 1021.52 456.63 996.61 456.63 967.67 478.74 949.99 503.62 940.34 529.37 925.88 563.13 909.8 553.48 879.26 537.41 851.13 530.17 832.64 513.3 803.09 506.06 779.59 518.52 761.11 518.52 745.84 543.84 733.78 568.75 727.35 586.44"/><polygon id="Plant11x2" class="cls-1" points="727.35 586.44 698.41 578.78 674.3 589.65 670.28 605.73 675.11 628.23 689.57 636.27 716.1 632.25 732.98 636.27 738.07 628.23 735.92 601.17 727.35 586.44"/><polygon id="Plant12" class="cls-1" points="732.98 673.24 712.08 682.08 704.04 695.75 716.1 715.04 735.39 716.64 762.72 721.47 782 682.08 762.72 682.08 732.98 673.24"/><polygon id="Plant13" class="cls-1" points="658.23 456.63 636.53 443.37 619.65 439.56 600.1 442.99 604.38 453.82 604.38 469.09 600.36 481.15 586.69 492.4 572.63 492.4 567.4 506.87 578.66 512.49 583.1 532.59 565.8 539.82 583.1 566.34 595.13 563.93 604.38 570.36 614.02 583.22 610 598.49 578.66 598.49 576.25 583.22 534.45 599.58 534.45 628.23 528.82 656.36 520.79 679.67 528.82 686.91 541.79 697.36 552.26 692.84 569.82 669.22 583.1 656.36 604.38 642.7 630.9 642.7 642.15 653.95 634.92 682.89 674.3 683.69 704.04 695.75 712.08 682.08 732.98 673.24 732.98 636.27 716.1 632.25 689.57 636.27 675.11 628.23 670.28 605.73 674.3 589.65 698.41 578.78 727.35 586.44 733.78 568.75 761.11 518.52 753.87 492.4 722.53 485.17 712.08 485.17 712.08 503.62 703.24 512.49 699.22 523.34 691.18 529.37 678.32 529.37 670.28 523.34 679.13 506.87 679.13 492.4 690.38 476.32 670.28 464.27 658.23 456.63"/><polygon id="Plant14" class="cls-1" points="420.32 57.57 404.24 84.9 368.07 92.13 368.07 139.55 376.92 175.72 384.15 186.97 420.32 191.8 454.07 196.62 480.6 174.11 513.55 152.41 541.79 121.87 561.78 110.62 587.5 105.8 597.95 97.76 609.2 69.63 609.2 61.59 578.66 42.3 552.94 18.19 526.41 0.51 488.64 0.51 462.92 10.95 439.61 40.69 420.32 57.57"/><polygon id="Plant14x2" class="cls-1" points="712.08 153.22 670.28 165.27 640.95 175.72 629.29 186.97 629.29 210.28 635.72 228.77 646.98 246.45 650.99 265.74 662.25 278.6 687.16 278.6 716.9 278.6 722.53 260.12 737 252.88 743.02 222.34 749.86 211.89 757.89 196.62 751.46 186.97 725.74 166.08 712.08 153.22"/><polygon id="Plant15" class="cls-1" points="561.78 110.62 578.66 120.26 583.1 137.95 589.11 164.47 578.66 179.74 595.13 174.92 617.24 179.74 629.29 186.97 629.29 210.28 609.2 219.93 590.71 219.93 576.25 246.45 567.4 260.12 534.45 267.35 503.1 267.35 496.32 253.69 496.32 232.79 507.12 215.91 517.46 205.46 493.46 219.93 488.64 232.79 478.99 244.04 470.9 243.27 457.29 218.32 454.07 196.62 480.6 174.11 513.55 152.41 541.79 121.87 561.78 110.62"/><polygon id="Plant16" class="cls-1" points="578.66 309.95 567.4 309.95 556.15 324.42 562.44 338.88 576.25 350.14 587.5 364.6 595.13 372.64 623.67 372.64 645.37 372.64 655.01 359.78 640.95 341.29 619.65 328.43 604.38 318.79 595.13 318.79 578.66 309.95"/><polygon id="Plant17" class="cls-1" points="576.25 246.45 567.4 260.12 534.45 267.35 503.1 267.35 496.32 278.6 511.14 288.25 520.79 293.07 517.46 309.95 524 318.79 536.28 325.22 556.15 324.42 567.4 309.95 578.66 309.95 595.13 318.79 604.38 318.79 619.65 328.43 640.95 341.29 650.99 350.14 662.25 328.43 659.03 315.57 674.3 315.57 674.3 354.15 693.59 379.87 737 379.87 761.11 357.37 761.11 344.51 746.64 305.93 723.33 278.6 716.9 278.6 662.25 278.6 650.99 265.74 646.98 290.66 629.29 300.3 601.16 290.66 576.25 267.35 576.25 246.45"/><polygon id="Plant18" class="cls-1" points="646.98 246.45 614.02 219.93 590.71 219.93 576.25 246.45 576.25 267.35 601.16 290.66 629.29 300.3 646.98 290.66 650.99 265.74 646.98 246.45"/><polygon id="Plant19" class="cls-1" points="745.84 161.25 771.56 133.93 824.93 140.36 847.91 153.22 872.83 196.62 884.08 232.79 877.65 267.35 824.93 272.17 777.18 272.17 745.84 260.12 737 252.88 743.02 222.34 757.89 196.62 737 175.22 745.84 161.25"/><polygon id="Plant20" class="cls-1" points="772.36 485.97 750.12 491.53 743.02 502.85 743.02 514.1 747.44 529.37 765.13 533.39 778.79 529.37 778.79 513.3 778.79 499.63 772.36 485.97"/><polygon id="Plant21" class="cls-1" points="778.79 499.63 785.22 492.4 798.08 496.02 803.09 506.06 803.09 514.1 803.09 518.52 796.47 523.34 785.22 523.34 779.59 518.52 778.79 499.63"/><polygon id="Plant22" class="cls-1" points="815.76 502.85 803.09 506.06 803.09 514.1 810.54 523.34 829.43 523.34 838.27 523.34 838.27 513.1 828.62 503.62 815.76 502.85"/><polygon id="Plant23" class="cls-1" points="951.6 593.67 931.5 568.46 909.8 553.48 892.12 539.82 872.02 523.34 846.3 518.52 838.36 518.52 838.27 529.37 859.16 539.82 888.1 563.93 908.19 585.63 921.86 606.53 934.72 619.58 945.28 608.14 951.6 593.67"/><polygon id="Plant24" class="cls-1" points="935.52 592.06 916.88 598.49 912.21 608.94 923.87 623.41 935.52 628.23 951.6 610.15 935.52 592.06"/><polygon id="Plant24x2" class="cls-1" points="951.6 539.82 931.9 549.06 941.75 569.05 960.44 569.05 968.48 551.07 951.6 539.82"/><polygon id="Plant25" class="cls-1" points="962.04 513.1 945.28 509.68 931.9 518.52 935.87 539.82 951.6 547.05 973.69 539.82 980.53 518.52 962.04 513.1"/><polygon id="Plant26" class="cls-1" points="992.59 6.13 965.26 0.51 933.91 3.32 905.78 42.3 892.12 59.18 892.12 94.54 888.1 121.87 903.37 153.22 916.88 174.92 972.12 218.13 1024.22 258.44 1065.46 269.31 1145.84 227.88 1153.34 153.93 1141.9 91.25 1093.86 42.3 1061.71 29.44 1032.78 16.58 992.59 6.13"/><polygon id="Plant26x2" class="cls-1" points="1316.5 141.16 1276.31 158.04 1265.86 177.33 1257.02 203.05 1269.88 219.93 1293.99 232.79 1324.54 232.79 1348.65 228.77 1368.74 215.91 1379.19 196.62 1379.19 174.92 1365.53 153.22 1354.28 141.16 1316.5 141.16"/><polygon id="Plant27" class="cls-1" points="1173.43 420.87 1191.92 425.69 1212.82 412.83 1212.82 394.34 1212.82 383.89 1184.68 379.87 1173.43 369.02 1164.59 358.98 1164.59 341.29 1154.94 328.43 1141.28 328.43 1122.93 336.47 1115.56 352.55 1115.56 365.41 1122.93 372.64 1137.26 372.64 1150.93 379.87 1154.14 396.75 1154.14 412.02 1173.43 420.87"/><polygon id="Plant28" class="cls-1" points="888.1 121.87 847.91 153.22 872.83 196.62 884.08 232.79 877.65 267.35 824.93 272.17 777.18 272.17 745.84 260.12 737 252.88 722.53 260.12 716.9 278.6 723.33 278.6 746.64 305.93 761.11 344.51 761.11 357.37 737 379.87 693.59 379.87 685.02 390.41 655.01 388.27 646.44 390.41 640.95 398.99 656.44 436.85 659.66 442.92 712.08 474 722.88 470.43 741.1 479 757.89 472.93 776.11 485.97 790.94 490.79 824.93 498.65 844.7 513.1 872.02 523.34 924.42 563.57 940.34 529.37 922.57 507.87 904.35 489.36 883.28 474 878.28 460.79 855.41 464 847.55 452.93 868.63 444.35 878.28 455.78 904 458.28 947.22 479 959.72 475.07 968.48 460.79 996.61 456.63 1021.52 456.63 1038.4 466.68 1063.32 461.05 1100.29 498.02 1129.22 503.62 1144.5 510.08 1164.59 511.69 1186.29 503.62 1206.1 487.58 1231.3 467.48 1257.02 449.8 1265.58 444.72 1261.58 417.92 1252.29 409.35 1269.08 392.91 1275.86 386.13 1289.26 361.48 1305.51 364.69 1338.73 352.9 1354.81 377.06 1383.21 379.87 1384.82 354.15 1371.6 335.4 1360.53 323.97 1367.67 311.11 1379.19 320.04 1387.32 322.9 1399.82 310.75 1408.39 316.11 1420.51 330.65 1461.17 334.86 1496.98 324.68 1501.63 310.39 1460.55 280.39 1443.04 274.31 1438.4 258.24 1423.04 250.02 1405.89 251.1 1368.74 215.91 1348.65 228.77 1324.54 232.79 1293.99 232.79 1269.88 219.93 1257.02 203.05 1265.86 177.33 1276.31 158.04 1276.22 150 1259.08 125 1246.93 119.64 1205.13 123.57 1173.7 142.86 1158.7 152.15 1153.34 168.22 1154.77 193.94 1157.98 220.02 1167.27 238.95 1175.48 248.95 1176.56 257.88 1171.2 285.39 1164.19 290.03 1150.84 277.17 1159.05 259.31 1161.2 247.52 1155.48 232.79 1145.84 227.88 1065.46 269.31 1024.22 258.44 916.88 174.92 888.1 121.87"/><polygon id="Plant29" class="cls-1" points="1142.09 1466.01 1127.08 1466.01 1117.44 1477.26 1112.08 1489.05 1112.08 1496.55 1096 1493.87 1076.71 1489.58 1055.28 1493.34 1042.96 1512.09 1047.24 1535.67 1056.35 1545.85 1075.11 1551.74 1099.75 1546.38 1111.01 1535.13 1120.12 1517.45 1119.58 1505.66 1134.05 1505.66 1145.3 1498.69 1151.19 1484.76 1145.3 1470.83 1142.09 1466.01"/><polygon id="Plant29x2" class="cls-1" points="779.86 1264.53 770.75 1267.21 760.04 1281.68 760.04 1297.76 777.72 1312.76 797.01 1314.9 810.94 1304.19 822.19 1287.04 816.83 1277.26 805.58 1267.21 779.86 1264.53"/><polygon id="Plant29x3" class="cls-1" points="712.35 1515.3 694.66 1511.55 680.73 1523.88 670.02 1541.02 670.02 1561.39 681.8 1568.89 694.66 1565.67 704.31 1559.24 719.31 1541.56 719.31 1526.56 712.35 1515.3"/><polygon id="Plant29x4" class="cls-1" points="694.66 1299.36 683.41 1303.11 672.16 1318.12 674.84 1332.76 686.09 1350.62 702.7 1362.06 715.03 1357.77 721.46 1344.91 715.03 1325.62 709.67 1312.76 694.66 1299.36"/><polygon id="Plant29x5" class="cls-1" points="622.86 1169.16 608.93 1179.87 603.04 1200.23 603.04 1219.52 606.25 1242.03 617.5 1260.25 628.22 1260.25 654.48 1249.53 675.91 1235.6 683.41 1220.06 679.13 1198.09 672.16 1183.62 643.22 1171.84 622.86 1169.16"/><polygon id="Plant29x6" class="cls-1" points="694.66 1414.03 670.02 1414.03 660.91 1431.71 664.12 1459.04 677.79 1469.76 694.66 1481.01 719.31 1485.83 731.64 1475.65 729.49 1449.93 721.46 1430.11 705.92 1417.65 694.66 1414.03"/><polygon id="Plant29x7" class="cls-1" points="488.9 1338.48 478.19 1333.12 466.4 1344.91 466.4 1357.23 480.87 1369.02 488.9 1377.06 500.48 1377.06 507.12 1366.34 500.48 1350.8 488.9 1338.48"/><polygon id="Plant29x8" class="cls-1" points="384.42 1355.09 361.91 1355.09 353.34 1371.16 357.09 1390.99 372.63 1407.6 388.17 1417.65 405.85 1414.03 414.96 1403.32 408.53 1381.35 395.13 1362.06 384.42 1355.09"/><polygon id="Plant29x9" class="cls-1" points="473.9 1283.29 476.04 1274.18 471.76 1260.25 461.04 1260.25 454.07 1257.03 444.43 1253.82 434.79 1264.53 427.28 1277.39 427.28 1287.58 435.32 1293.75 446.57 1299.36 454.07 1305.26 458.36 1312.76 463.18 1314.9 471.22 1314.9 476.04 1309.54 483.55 1302.58 483.55 1293.75 478.72 1289.72 473.9 1283.29"/><polygon id="Plant29x10" class="cls-1" points="348.52 1189.52 337.26 1196.48 331.9 1207.74 328.69 1217.92 336.19 1225.95 338.6 1231.31 342.62 1245.24 348.52 1249.53 357.63 1253.82 369.41 1253.82 375.31 1251.14 377.45 1240.42 377.45 1229.7 377.45 1217.92 368.88 1205.06 361.38 1196.48 353.34 1191.13 348.52 1189.52"/><polygon id="Plant29x11" class="cls-1" points="420.32 1209.88 406.39 1214.7 399.96 1229.17 406.39 1243.1 420.32 1249.53 429.43 1249.53 439.07 1242.57 442.29 1235.6 440.14 1221.67 432.11 1214.7 420.32 1209.88"/><polygon id="Plant30" class="cls-1" points="589.64 1381.88 575.71 1386.37 575.71 1402.78 568.74 1417.65 556.96 1426.89 548.92 1440.29 548.92 1466.01 562.31 1482.08 580 1500.84 596.61 1504.59 613.22 1508.87 629.83 1511.55 650.19 1501.37 660.91 1485.83 657.69 1466.01 657.16 1449.93 651.8 1429.04 643.22 1409.74 627.15 1396.88 604.91 1386.37 589.64 1381.88"/><polygon id="Plant31" class="cls-1" points="1230.5 1251.67 1217.1 1244.71 1199.95 1244.71 1190.85 1258.64 1177.45 1264 1173.7 1279.54 1176.38 1300.43 1202.1 1327.76 1214.96 1324.55 1228.35 1332.76 1240.14 1332.76 1254.07 1337.94 1262.65 1332.76 1262.65 1314.9 1256.75 1297.76 1248.71 1291.33 1248.71 1277.26 1240.68 1265.07 1230.5 1251.67"/><polygon id="Plant31x2" class="cls-1" points="1095.47 1240.96 1071.89 1235.6 1055.82 1238.28 1042.96 1260.25 1048.31 1277.26 1054.21 1291.33 1075.64 1304.19 1084.21 1312.76 1104.04 1297.76 1120.12 1283.82 1134.05 1277.26 1131.37 1264 1117.44 1256.5 1100.83 1244.71 1095.47 1240.96"/><polygon id="Plant31x3" class="cls-1" points="875.24 1390.99 866.67 1400.64 860.77 1412.42 852.2 1421 854.34 1438.14 869.88 1446.18 872.56 1462.26 866.67 1470.83 852.2 1482.62 848.45 1497.09 857.56 1502.98 875.24 1508.87 895.6 1491.73 909 1475.65 909 1452.08 903.1 1429.04 895.6 1409.74 888.64 1396.35 882.21 1390.99 875.24 1390.99"/><polygon id="Plant32" class="cls-1" points="1203.71 1502.44 1215.49 1489.58 1237.46 1496.01 1255.14 1498.16 1272.29 1499.23 1304.98 1519.06 1328.82 1508.87 1349.99 1516.91 1364.99 1539.95 1379.39 1572.1 1385.35 1596.75 1371.42 1616.04 1356.39 1625.69 1338.73 1638.01 1322.66 1651.41 1304.98 1665.87 1272.83 1665.87 1251.93 1657.3 1248.22 1653.01 1246.57 1624.61 1228.89 1597.82 1232.11 1561.92 1229.42 1536.74 1211.21 1526.56 1199.95 1519.06 1203.71 1502.44"/><polygon id="Plant33" class="cls-1" points="1371.96 1201.31 1371.96 1181.48 1382.14 1164.87 1393.93 1156.83 1413.22 1156.83 1440.01 1166.48 1453.94 1179.07 1453.94 1199.16 1453.94 1218.99 1471.62 1224.35 1493.06 1230.78 1511.27 1235.6 1518.78 1253.82 1518.78 1269.89 1525.2 1281.14 1532.71 1293.47 1532.71 1310.08 1527.35 1315.97 1520.38 1322.94 1512.35 1325.62 1505.91 1335.26 1504.84 1358.84 1507.52 1384.56 1496.81 1397.42 1481.27 1406.53 1461.44 1403.32 1452.33 1392.6 1436.79 1372.77 1433.58 1350.62 1444.83 1335.26 1449.12 1325.89 1471.62 1298.56 1478.05 1272.04 1462.78 1246.32 1445.9 1225.42 1423.4 1215.77 1396.07 1210.15 1384.01 1210.15 1357.73 1215.77 1336.06 1239.08 1326.14 1268.82 1330.97 1297.76 1326.14 1304.72 1320.52 1295.61 1315.69 1277.26 1321.05 1253.28 1326.14 1240.42 1338.2 1224.35 1352.13 1210.15 1371.96 1201.31"/><polygon id="Plant33x2" class="cls-1" points="1343.56 1314.9 1333.38 1322.4 1333.38 1336.34 1347.8 1348.75 1369.04 1357.86 1385.35 1360.47 1390.98 1347.59 1385.35 1337.41 1366.87 1330.71 1356.39 1318.65 1349.45 1314.9 1343.56 1314.9"/><polygon id="Plant33x3" class="cls-1" points="1326.14 1373.31 1315.69 1369.56 1304.98 1385.63 1310.87 1400.64 1315.56 1408.67 1319.44 1417.65 1333.38 1423.14 1347.8 1423.14 1352.67 1403.32 1343.56 1384.03 1326.14 1373.31"/><polygon id="Plant33x4" class="cls-1" points="1244.43 1337.94 1236.93 1337.94 1234.78 1347.05 1244.43 1363.13 1249.25 1369.56 1258.36 1369.56 1262.65 1361.52 1253 1344.37 1244.43 1337.94"/><polygon id="Plant33x5" class="cls-1" points="1304.98 1406.53 1295.87 1403.85 1282.47 1406.53 1282.47 1417.78 1289.26 1427.96 1300.69 1431.71 1304.98 1423.14 1307.66 1409.74 1304.98 1406.53"/><polygon id="Plant34" class="cls-1" points="988.57 1006.8 980.53 1019.66 984.55 1045.38 1010.27 1051.81 1035.99 1035.73 1054.93 1011.62 1044.83 993.13 1037.6 972.24 1028.76 959.38 1017.73 947.32 1004.64 947.32 991.78 947.32 989.37 956.16 992.59 969.02 995 987.51 994.2 999.57 988.57 1006.8"/><polygon id="Plant34x2" class="cls-1" points="1082.07 921.6 1099.75 931.95 1116.37 931.95 1127.08 915.98 1129.76 893.74 1122.93 883.02 1115.83 880.61 1098.68 880.61 1085.29 884.09 1074.03 892.67 1074.03 906.28 1082.07 921.6"/><polygon id="Plant34x3" class="cls-1" points="1353.74 1093.6 1339.27 1098.43 1336.06 1110.75 1344.9 1122 1360.7 1125.22 1371.42 1125.22 1377.32 1113.96 1379.39 1100.03 1372.49 1093.6 1359.63 1093.6 1353.74 1093.6"/><polygon id="Plant34x4" class="cls-1" points="1351.6 856.77 1330.7 856.77 1311.94 872.84 1311.94 892.13 1314.62 906.28 1331.77 909.28 1357.73 900.7 1372.49 906.28 1382.67 902.85 1379.39 880.61 1370.35 866.65 1351.6 856.77"/><polygon id="Plant34x5" class="cls-1" points="1347.04 1189.25 1329.36 1189.25 1317.3 1210.15 1310.87 1230.24 1318.11 1239.08 1328.96 1248.73 1343.56 1248.73 1351.06 1232.65 1357.73 1222.2 1365.53 1210.15 1357.73 1195.68 1347.04 1189.25"/><polygon id="Plant34x6" class="cls-1" points="1330.97 1297.76 1319.44 1303.11 1319.44 1316.51 1325.21 1325.08 1330.97 1327.76 1336.06 1325.08 1347.8 1317.39 1343.56 1309.01 1336.06 1297.76 1333.38 1297.76 1330.97 1297.76"/><polygon id="Plant34x7" class="cls-1" points="1169.95 1327.76 1152.27 1332.76 1145.3 1353.75 1151.19 1374.38 1160.3 1378.67 1173.7 1380.81 1181.2 1380.81 1196.2 1371.7 1194.06 1350.62 1186.56 1332.76 1169.95 1327.76"/><polygon id="Plant34x8" class="cls-1" points="1278.19 1478.33 1266.4 1453.68 1248.71 1442.43 1226.75 1449.93 1206.1 1466.01 1203.71 1485.83 1215.49 1498.69 1237.46 1508.87 1255.14 1508.87 1268.54 1494.94 1278.19 1478.33"/><polygon id="Plant34x9" class="cls-1" points="1092.79 1577.73 1065.46 1580.68 1050.46 1599.97 1052.6 1621.93 1083.68 1639.62 1100.83 1651.41 1107.79 1648.19 1145.3 1633.72 1153.34 1620.86 1147.44 1599.97 1138.33 1585.5 1122.93 1577.73 1092.79 1577.73"/><polygon id="Plant34x10" class="cls-1" points="1362.55 1536.21 1356.39 1512.63 1347.8 1497.09 1343.02 1485.83 1358.56 1459.04 1379.39 1448.86 1402.1 1444.57 1419.65 1453.15 1430.36 1462.26 1427.68 1475.65 1405.71 1472.44 1410.54 1487.44 1439.47 1489.58 1463.58 1497.09 1468.94 1512.63 1478.05 1529.24 1484.48 1541.56 1501.63 1534.06 1512.88 1534.59 1527.35 1541.56 1520.92 1530.31 1505.38 1508.87 1495.73 1489.58 1493.59 1475.65 1497.88 1475.65 1471.62 1457.97 1458.76 1448.86 1450.19 1433.86 1448.58 1423.14 1429.29 1409.74 1408.39 1396.35 1393.39 1375.99 1399.82 1364.73 1413.75 1364.73 1436.79 1372.77 1461.44 1403.32 1481.27 1406.53 1496.81 1397.42 1507.52 1384.56 1504.84 1358.84 1505.91 1335.26 1512.35 1325.62 1520.38 1322.94 1532.71 1310.08 1532.71 1293.47 1518.78 1269.89 1518.78 1253.82 1511.27 1235.6 1453.94 1218.99 1453.94 1179.07 1460.9 1165.4 1474.84 1165.4 1487.7 1170.23 1503.24 1176.12 1509.13 1156.83 1519.85 1147.72 1535.39 1147.72 1535.39 1133.26 1535.39 1125.22 1553.6 1122 1564.32 1117.18 1557.89 1098.43 1558.43 1075.38 1538.6 1070.03 1521.45 1033.59 1538.6 1022.34 1555.75 1019.66 1580.93 1022.87 1596.47 1050.2 1596.47 1061.99 1610.94 1059.85 1646.84 1040.02 1667.2 1040.56 1686.49 1053.42 1689.71 1075.38 1664.52 1097.35 1641.48 1109.41 1610.4 1102.71 1601.83 1102.71 1595.93 1120.39 1577.72 1119.86 1572.89 1140.22 1589.51 1149.33 1588.43 1166.48 1569.68 1162.19 1557.89 1161.12 1549.32 1170.76 1532.71 1172.37 1521.45 1193.27 1547.71 1204.52 1569.14 1218.99 1578.25 1235.6 1590.58 1235.6 1613.62 1239.89 1638.8 1244.71 1642.55 1228.63 1654.88 1218.99 1667.74 1218.99 1689.71 1223.81 1696.67 1244.71 1688.63 1266.14 1668.27 1267.21 1660.77 1266.14 1654.34 1268.29 1648.98 1281.68 1637.73 1291.33 1620.05 1291.33 1608.26 1284.9 1601.83 1281.68 1598.61 1285.43 1599.15 1304.19 1590.58 1309.01 1599.69 1324.55 1606.12 1335.26 1593.26 1337.94 1583.61 1337.94 1594.33 1353.75 1601.29 1360.98 1591.11 1371.25 1577.72 1369.56 1566.46 1360.45 1558.96 1350.62 1552.53 1350.62 1557.89 1369.56 1561.11 1393.67 1577.72 1393.67 1599.15 1396.35 1610.94 1412.96 1627.01 1432.79 1621.65 1456.9 1601.29 1466.01 1586.83 1468.15 1567.54 1477.8 1561.64 1486.9 1567.54 1569.96 1432.51 1586.57 1427.15 1568.35 1411.61 1568.35 1400.36 1574.25 1403.57 1586.57 1385.35 1596.75 1379.39 1572.1 1362.55 1536.21"/><polygon id="Plant34x11" class="cls-1" points="1393.93 1332.76 1385.35 1340.09 1385.35 1353.75 1389.64 1363.13 1399.82 1364.73 1413.75 1359.91 1424.2 1350.62 1424.2 1337.94 1414.82 1332.76 1393.93 1332.76"/><polygon id="Plant34_inferred_" data-name="Plant34(inferred)" class="cls-1" points="1192.63 797.64 1180.93 805.15 1173.16 817.07 1173.16 823.37 1173.16 828.01 1161.2 831.22 1161.2 840.15 1168.34 850.87 1176.91 859.45 1180.93 868.02 1182.63 880.61 1180.93 884.45 1183.7 892.13 1194.78 900.52 1210.14 906.28 1233.18 899.1 1241.93 883.02 1243.36 864.45 1243.36 850.87 1243.36 837.65 1235.32 829.79 1219.78 824.96 1212.74 809.88 1206.1 802.29 1197.28 797.64 1192.63 797.64"/><polygon id="Plant34_inferred_x2" data-name="Plant34(inferred)x2" class="cls-1" points="1240.14 925.53 1231.57 927.12 1221.21 938.03 1217.28 953.75 1221.92 963.04 1228.71 965.9 1240.14 965.9 1247.64 958.04 1251.93 945.71 1254.43 934.1 1250.14 927.12 1240.14 925.53"/><polygon id="Plant35" class="cls-1" points="1194.06 1344.37 1201.56 1332.76 1216.03 1332.76 1232.11 1338.57 1242.82 1350.62 1255.14 1371.7 1258.9 1389.38 1246.57 1400.64 1226.48 1409.74 1203.71 1406.53 1194.06 1393.13 1191.92 1384.03 1188.17 1369.56 1194.06 1344.37"/><polygon id="Plant36" class="cls-1" points="1292.65 927.12 1270.68 927.12 1248.71 940.89 1233.18 972.24 1235.32 1002.51 1243.36 1037.88 1259.43 1059.85 1286.76 1081.28 1323.2 1102.71 1356.42 1102.71 1397.68 1097.89 1419.65 1073.78 1445.37 1051.81 1448.58 1036.81 1453.94 998.21 1447.51 978.93 1428.22 953.22 1407.86 939.82 1393.93 918.92 1378.39 903.92 1352.13 892.13 1330.7 897.49 1310.34 918.92 1292.65 927.12"/><polygon id="Plant36x2" class="cls-1" points="1384.01 1210.15 1357.73 1215.77 1336.06 1239.08 1326.14 1268.82 1330.97 1297.76 1350.26 1320.26 1367.13 1334.73 1384.01 1344.37 1412.14 1335.53 1449.12 1325.89 1471.62 1298.56 1478.05 1272.04 1462.78 1246.32 1445.9 1225.42 1423.4 1215.77 1396.07 1210.15 1384.01 1210.15"/><polygon id="Plant36x3" class="cls-1" points="1229.42 1536.74 1211.21 1526.56 1188.17 1526.56 1170.75 1534.59 1154.41 1575.85 1151.19 1590.32 1170.75 1627.83 1190.31 1643.9 1209.06 1660.52 1234.78 1673.38 1248.71 1661.59 1246.57 1624.61 1228.89 1597.82 1232.11 1561.92 1229.42 1536.74"/><polygon id="Plant37" class="cls-1" points="1289.26 783.26 1268.54 783.26 1254.07 783.26 1239.61 790.86 1235.32 806.93 1238.54 824.96 1247.64 833.19 1259.43 847.12 1271.76 850.87 1294.8 848.19 1303.91 835.87 1306.05 824.96 1306.05 810.68 1306.05 793.54 1306.05 787.64 1300.69 783.26 1289.26 783.26"/><polygon id="Plant38" class="cls-1" points="1079.93 714.1 1077.79 725.71 1086.89 734.33 1108.86 738.88 1122.93 744.78 1149.59 753.35 1164.59 750.67 1173.16 733.73 1169.95 719.59 1150.12 721.2 1129.76 723.61 1113.69 718.52 1094.93 714.1 1085.82 708.34 1079.93 714.1"/><polygon id="PlantA" class="cls-1" points="951.6 788.18 940.34 799.43 931.9 819.52 931.9 847.66 945.28 858.91 956.22 866.65 970.89 854.89 980.53 836.4 973.69 814.7 973.69 797.02 968.48 788.18 959.84 783.26 951.6 788.18"/><polygon id="PlantAx2" class="cls-1" points="888.9 889.45 862.38 897.49 848.72 912.76 838.27 931.25 838.27 948.13 844.7 962.59 859.97 972.24 880.87 972.24 901.76 969.02 920.25 968.22 931.9 956.16 937.39 935.26 924.27 906.33 912.21 897.49 898.66 891.24 888.9 889.45"/><polygon id="PlantAx3" class="cls-1" points="945.28 915.98 959.48 921.6 968.48 938.48 962.2 944.11 945.28 947.32 935.07 944.11 937.39 935.26 931.2 921.6 945.28 915.98"/><polygon id="PlantAx4" class="cls-1" points="838.27 931.25 824.93 937.68 803.09 937.68 778.79 931.65 772.36 921.6 765.93 908.74 748.25 897.49 732.17 884.63 723.33 874.18 712.08 860.52 712.08 844.44 712.08 824.96 704.04 810.68 691.18 804.25 670.28 815.91 650.99 824.96 631.7 824.96 620.2 828.61 620.2 833.19 626.88 842.03 650.19 842.03 663.05 839.62 675.91 836.4 687.16 824.96 691.18 829.17 691.18 846.85 698.41 866.65 704.04 881.41 700.83 897.49 683.14 897.49 664.66 897.49 655.01 904.72 655.01 921.6 670.28 937.68 696 944.11 712.08 931.65 715.29 921.6 724.94 903.92 729.23 905.53 747.44 921.6 753.07 931.65 760.91 944.11 782 956.97 795.67 956.97 808.53 951.34 838.27 931.25"/><polygon id="PlantAx5" class="cls-1" points="1273.36 666.54 1283.55 653.68 1291.58 647.79 1295.87 632.12 1298.01 619.58 1275.51 610.55 1259.43 619.58 1254.07 632.12 1241.75 640.83 1221.39 650.47 1203.71 661.19 1203.71 670.83 1219.78 678.33 1240.14 680.48 1255.14 677.26 1273.36 666.54"/><polygon id="PlantAx6" class="cls-1" points="1302.3 744.78 1294.26 744.78 1287.3 744.78 1283.55 753.35 1283.55 765.98 1285.93 771.87 1294.8 778 1306.05 783.26 1314.62 773.71 1314.62 764.02 1314.62 753.35 1306.05 744.78 1302.3 744.78"/><polygon id="PlantAx7" class="cls-1" points="1012.95 693.87 997.95 693.87 993.12 701.37 993.12 715.31 993.12 728.7 997.95 731.92 1008.66 734.33 1017.73 731.92 1024.2 721.2 1024.2 708.88 1017.73 697.09 1012.95 693.87"/><polygon id="PlantAx8" class="cls-1" points="1032.78 668.15 1022.06 668.15 1017.73 675.65 1020.45 685.3 1032.78 689.59 1040.81 682.62 1040.81 678.87 1040.81 669.76 1032.78 668.15"/><polygon id="PlantAx9" class="cls-1" points="1097.08 801.33 1099.75 789.79 1113.69 778 1136.73 780.14 1150.93 789.79 1158.7 808.27 1158.7 815.77 1155.75 824.08 1150.12 833.19 1138.26 842.83 1129.76 845.78 1119.74 846.79 1113.95 832.12 1097.08 801.33"/><polygon id="PlantAx10" class="cls-1" points="1357.73 730.85 1336.06 734.33 1322.93 747.19 1326.14 764.02 1327.75 778 1347.31 786.57 1362.31 783.26 1372.76 771.3 1372.76 757.64 1369.55 738.88 1357.73 730.85"/><polygon id="PlantS" class="cls-1" points="965.8 744.78 956.22 756.83 945.28 776.39 937.39 809.08 938.74 839.62 938.74 879.81 941.95 896.68 945.28 915.98 956.22 921.6 959.86 912.36 962.2 897.49 959.23 864.24 956.46 833.19 962.2 801.04 968.48 776.39 974.9 758.44 965.8 744.78"/><polygon id="PlantSx2" class="cls-1" points="956.22 734.33 931.9 751.21 916.88 770.9 907.39 809.88 901.76 849.26 901.76 872.57 912.21 888.65 921.05 897.49 928.99 891.06 928.29 877.39 925.88 866.65 924.27 836.4 928.99 807.47 935.52 783.26 950.19 758.44 962.2 748.44 962.2 738.35 956.22 734.33"/><polygon id="PlantSx3" class="cls-1" points="811.74 966.61 831.03 981.08 853.54 985.9 864.79 977.46 864.79 962.59 859.97 947.32 853.04 936.25 836.16 931.95 818.17 944.91 811.74 966.61"/><polygon id="PlantSx4" class="cls-1" points="1195.13 584.83 1215.23 574.38 1227.28 566.34 1235.32 588.85 1235.32 603.32 1242.55 613.76 1259.43 619.58 1254.07 632.12 1241.75 640.83 1221.39 650.47 1209.6 657.61 1209.6 639.49 1201.56 619.58 1187.9 606.53 1164.59 594.48 1195.13 584.83"/><polygon id="PlantSx5" class="cls-1" points="1336.06 615.64 1320.52 610.55 1298.01 619.58 1304.44 644.04 1319.44 649.4 1336.06 653.68 1347.85 653.68 1347.85 645.11 1347.85 632.12 1337.66 619.58 1336.06 615.64"/><polygon id="PlantSx6" class="cls-1" points="1233.71 759.78 1246.04 744.78 1259.43 728.7 1268.54 710.48 1268.54 697.62 1265.86 684.23 1256.75 670.3 1242.82 668.15 1228.89 670.3 1214.79 676.01 1206.1 680.48 1201.03 691.73 1192.18 707.02 1172.09 729.24 1162.45 738.35 1156.93 752.45 1161.91 763 1175.34 771.46 1191.38 780.14 1203.71 783.26 1219.78 779.61 1229.42 768.89 1233.71 759.78"/><polygon id="PlantSx7" class="cls-1" points="1320.52 668.15 1308.19 663.87 1294.8 668.15 1280.33 683.69 1268.54 697.62 1268.54 710.48 1270.68 725.71 1281.4 734.33 1300.69 738.88 1320.52 736.74 1328.02 728.17 1336.06 716.38 1336.06 701.37 1332.84 684.76 1329.09 675.12 1322.93 668.15 1320.52 668.15"/><polygon id="PlantSx8" class="cls-1" points="1279.26 738.88 1272.83 734.33 1259.43 728.7 1248.45 741.88 1243.36 757.64 1246.04 770.5 1250.86 778 1268.54 778 1282.47 778 1289.26 765.98 1287.3 753.35 1279.26 738.88"/><polygon id="PlantSx9" class="cls-1" points="1046.17 759.24 1058.49 774.78 1074.03 786.04 1082.61 788.18 1099.75 789.79 1113.69 778 1113.69 759.24 1097.08 742.1 1082.07 738.88 1067.07 738.88 1054.93 744.78 1046.17 759.24"/><polygon id="PlantSx10" class="cls-1" points="1045.63 714.1 1068.94 707.8 1078.59 710.22 1079.93 714.1 1077.79 725.71 1086.89 734.33 1108.86 738.88 1101.9 747.07 1097.08 742.1 1082.07 738.88 1067.07 738.88 1054.93 744.78 1049.65 753.62 1020.72 738.35 993.39 741.56 970.08 757.64 928.29 711.02 893.73 699.77 864.79 686.91 847.91 666.81 868.01 649.13 880.87 619.58 902.57 628.23 916.88 660.38 916.88 674.05 930.7 686.91 962.04 666.01 977.32 686.91 997.95 693.87 993.12 701.37 993.12 728.7 997.95 731.92 1008.66 734.33 1017.73 731.92 1019.67 728.7 1032.78 738.88 1044.56 738.88 1048.31 728.7 1045.63 714.1"/><polygon id="PlantSx11" class="cls-1" points="1009.47 671.63 1017.73 675.65 1020.45 685.3 1032.78 689.59 1040.81 682.62 1057.69 670.83 1068.94 707.8 1045.63 714.1 1038.67 708.34 1029.27 711.02 1024.2 714.1 1024.2 708.88 1017.73 697.09 1012.95 693.87 997.95 693.87 977.32 686.91 994.2 686.91 1009.47 671.63"/><polygon id="PlantSx12" class="cls-1" points="1018.31 653.95 1035.99 651.54 1057.69 670.83 1040.81 682.62 1040.81 669.76 1022.06 668.15 1017.73 675.65 1009.47 671.63 1018.31 653.95"/><polygon id="PlantSx13" class="cls-1" points="1156.93 780.68 1165.39 780.68 1175.84 784.43 1180.93 789.79 1180.49 797.8 1177.45 807.47 1168.93 809.88 1159.77 809.88 1155.96 801.75 1150.93 789.79 1154.14 783.26 1156.93 780.68"/><polygon id="PlantSx14" class="cls-1" points="1357.73 795.28 1367.13 797.64 1382.67 797.64 1399.29 789.79 1404.91 778 1404.91 758.71 1388.03 753.35 1379.39 750.4 1363.12 758.71 1357.73 774.02 1351.86 778 1351.86 789.79 1357.73 795.28"/><polygon id="PlantM" class="cls-1" points="1024.2 714.1 1029.27 711.02 1038.67 708.34 1045.63 714.1 1048.31 728.7 1044.56 738.88 1032.78 738.88 1026.35 734.33 1019.67 728.7 1024.2 721.2 1024.2 714.1"/><polygon id="BareGround" class="cls-1" points="496.32 278.6 488.69 280.56 507.93 303.52 511.94 324.42 500.48 339.69 500.48 349.33 528.82 348.53 552.94 358.17 572.63 372.64 563.38 395.95 560.17 410.42 568.21 427.3 583.1 420.87 592.32 433.73 598.75 439.56 600.1 442.99 619.65 439.56 636.53 443.37 690.38 476.32 712.08 485.17 722.53 485.17 750.12 491.53 772.36 485.97 778.79 499.63 785.22 492.4 798.08 496.02 803.09 506.06 815.76 502.85 828.62 503.62 838.27 513.1 838.36 518.52 846.3 518.52 872.02 523.34 844.7 513.1 824.93 498.65 790.94 490.79 776.11 485.97 757.89 472.93 741.1 479 722.88 470.43 712.08 474 659.66 442.92 640.95 398.99 646.44 390.41 655.01 388.27 685.02 390.41 693.59 379.87 674.3 354.15 674.3 315.57 659.03 315.57 662.25 328.43 650.99 350.14 640.95 341.29 655.01 359.78 645.37 372.64 595.13 372.64 587.5 364.6 576.25 350.14 562.44 338.88 556.15 324.42 534.47 324.27 524 318.79 517.46 309.95 520.79 293.07 511.14 288.25 496.32 278.6"/><polygon id="BareGroundx2" class="cls-1" points="847.55 452.93 868.63 444.35 878.28 455.78 904 458.28 947.22 479 959.72 475.07 968.48 460.79 996.61 456.63 967.67 478.74 949.99 503.62 947.72 509.68 945.28 509.68 931.9 518.52 904.35 489.36 883.28 474 878.28 460.79 855.41 464 847.55 452.93"/><polygon id="BareGroundx3" class="cls-1" points="1145.84 227.88 1155.48 232.79 1161.2 247.52 1159.05 259.31 1150.84 277.17 1164.19 290.03 1171.2 285.39 1176.56 257.88 1175.48 248.95 1167.27 238.95 1157.98 220.02 1153.34 168.22 1145.84 227.88"/><polygon id="BareGroundx4" class="cls-1" points="504.71 632.25 479.8 675.65 471.76 728.7 488.64 699.77 507.12 686.91 524 642.7 513.55 635.47 504.71 632.25"/></g><g id="TransectOverlays"><circle class="cls-2" cx="583.1" cy="439.56" r="6.23"/><circle class="cls-2" cx="532.53" cy="854.86" r="6.23"/><circle class="cls-2" cx="500.48" cy="1293.75" r="6.23"/><circle class="cls-2" cx="973.69" cy="578.78" r="6.23"/><circle class="cls-2" cx="956.54" cy="992.37" r="6.23"/><circle class="cls-2" cx="916.87" cy="1417.65" r="6.23"/><circle class="cls-2" cx="1289.26" cy="1350.62" r="6.23"/><circle class="cls-2" cx="1203.36" cy="914.65" r="6.23"/><circle class="cls-2" cx="1122.93" cy="503.62" r="6.23"/></g></g></svg>